<svg width="30" height="30" viewBox="0 0 30 30" fill="none" xmlns="http://www.w3.org/2000/svg">
<path d="M15.033 30H14.967C6.71428 30 0 23.2857 0 15.033V14.967C0 6.71428 6.71428 0 14.967 0H15.033C23.2857 0 30 6.71428 30 14.967V15.033C30 23.2857 23.2857 30 15.033 30ZM14.967 1.01547C7.2738 1.01547 1.01547 7.27381 1.01547 14.967V15.033C1.01547 22.7262 7.2738 28.9845 14.967 28.9845H15.033C22.7262 28.9845 28.9845 22.7262 28.9845 15.033V14.967C28.9845 7.27381 22.7262 1.01547 15.033 1.01547H14.967Z" fill="#1877F2"/>
<path d="M17.0181 11.6363V14.7934H20.9236L20.3052 19.0462H17.0181V28.8445C16.3591 28.9358 15.6848 28.9836 15.0004 28.9836C14.2103 28.9836 13.4345 28.9206 12.679 28.7988V19.0462H9.07715V14.7934H12.679V10.9306C12.679 8.53406 14.6216 6.59045 17.0191 6.59045V6.59247C17.0262 6.59247 17.0323 6.59045 17.0394 6.59045H20.9246V10.2685H18.386C17.6315 10.2685 17.0191 10.8808 17.0191 11.6353L17.0181 11.6363Z" fill="#1877F2"/>
</svg>
