<svg width="31" height="31" viewBox="0 0 31 31" fill="none" xmlns="http://www.w3.org/2000/svg">
<rect x="0.959473" y="0.0233154" width="30" height="30" rx="15" fill="#1B1F23"/>
<path fill-rule="evenodd" clip-rule="evenodd" d="M15.9446 6.90393C11.286 6.90393 7.5127 10.6622 7.5127 15.3023C7.5127 19.0186 9.92633 22.1575 13.278 23.2703C13.6996 23.3438 13.8577 23.0918 13.8577 22.8713C13.8577 22.6719 13.8472 22.0105 13.8472 21.3071C11.7287 21.6956 11.1806 20.7927 11.0119 20.3203C10.9171 20.0789 10.506 19.3335 10.1477 19.1341C9.85255 18.9766 9.43096 18.5882 10.1371 18.5777C10.8011 18.5672 11.2754 19.1866 11.4335 19.4385C12.1924 20.7088 13.4045 20.3518 13.8893 20.1314C13.9631 19.5855 14.1844 19.218 14.4269 19.0081C12.5508 18.7981 10.5903 18.0738 10.5903 14.8614C10.5903 13.9481 10.9171 13.1922 11.4546 12.6043C11.3703 12.3944 11.0752 11.5335 11.5389 10.3788C11.5389 10.3788 12.2451 10.1583 13.8577 11.2396C14.5323 11.0506 15.249 10.9561 15.9657 10.9561C16.6824 10.9561 17.3991 11.0506 18.0737 11.2396C19.6863 10.1478 20.3924 10.3788 20.3924 10.3788C20.8562 11.5335 20.5611 12.3944 20.4768 12.6043C21.0143 13.1922 21.341 13.9376 21.341 14.8614C21.341 18.0843 19.3701 18.7981 17.494 19.0081C17.7996 19.2705 18.0631 19.7744 18.0631 20.5618C18.0631 21.6851 18.0526 22.5879 18.0526 22.8713C18.0526 23.0918 18.2107 23.3542 18.6323 23.2703C21.9629 22.1575 24.3765 19.0081 24.3765 15.3023C24.3765 10.6622 20.6032 6.90393 15.9446 6.90393Z" fill="white"/>
</svg>
