<svg width="30" height="30" viewBox="0 0 30 30" fill="none" xmlns="http://www.w3.org/2000/svg">
<path d="M15.033 30H14.967C6.71428 30 0 23.2857 0 15.033V14.967C0 6.71427 6.71428 0 14.967 0H15.033C23.2857 0 30 6.71427 30 14.967V15.033C30 23.2857 23.2857 30 15.033 30ZM14.967 1.01547C7.27381 1.01547 1.01547 7.27379 1.01547 14.967V15.033C1.01547 22.7262 7.27381 28.9845 14.967 28.9845H15.033C22.7262 28.9845 28.9845 22.7262 28.9845 15.033V14.967C28.9845 7.27379 22.7262 1.01547 15.033 1.01547H14.967Z" fill="#383D38"/>
<path d="M19.485 6.40454H10.5164C8.03866 6.40454 6.02295 8.42025 6.02295 10.898V19.103C6.02295 21.5807 8.03866 23.5964 10.5164 23.5964H19.485C21.9628 23.5964 23.9785 21.5807 23.9785 19.103V10.898C23.9785 8.42025 21.9628 6.40454 19.485 6.40454ZM7.6081 10.898C7.6081 9.29457 8.91297 7.98967 10.5164 7.98967H19.485C21.0884 7.98967 22.3933 9.29457 22.3933 10.898V19.103C22.3933 20.7064 21.0884 22.0113 19.485 22.0113H10.5164C8.91297 22.0113 7.6081 20.7064 7.6081 19.103V10.898Z" fill="#383D38"/>
<path d="M15.001 19.1791C17.3051 19.1791 19.1806 17.3046 19.1806 14.9995C19.1806 12.6944 17.3061 10.8198 15.001 10.8198C12.6958 10.8198 10.8213 12.6944 10.8213 14.9995C10.8213 17.3046 12.6958 19.1791 15.001 19.1791ZM15.001 12.406C16.4318 12.406 17.5955 13.5697 17.5955 15.0005C17.5955 16.4313 16.4318 17.595 15.001 17.595C13.5702 17.595 12.4064 16.4313 12.4064 15.0005C12.4064 13.5697 13.5702 12.406 15.001 12.406Z" fill="#383D38"/>
<path d="M19.5671 11.4951C20.1875 11.4951 20.6932 10.9904 20.6932 10.369C20.6932 9.74749 20.1885 9.2428 19.5671 9.2428C18.9456 9.2428 18.4409 9.74749 18.4409 10.369C18.4409 10.9904 18.9456 11.4951 19.5671 11.4951Z" fill="#383D38"/>
</svg>
