<svg width="30" height="30" viewBox="0 0 30 30" fill="none" xmlns="http://www.w3.org/2000/svg">
<path d="M15.033 30H14.967C6.71429 30 0 23.2857 0 15.033V14.967C0 6.71428 6.71429 0 14.967 0H15.033C23.2857 0 30 6.71428 30 14.967V15.033C30 23.2857 23.2857 30 15.033 30ZM14.967 1.01547C7.27381 1.01547 1.01547 7.2738 1.01547 14.967V15.033C1.01547 22.7262 7.27381 28.9845 14.967 28.9845H15.033C22.7262 28.9845 28.9845 22.7262 28.9845 15.033V14.967C28.9845 7.2738 22.7262 1.01547 15.033 1.01547H14.967Z" fill="#007EBB"/>
<path d="M7.42033 10.1415C7.03851 9.78706 6.84863 9.34838 6.84863 8.82643C6.84863 8.30448 7.03953 7.8465 7.42033 7.49109C7.80215 7.13669 8.29364 6.95898 8.89581 6.95898C9.49798 6.95898 9.97018 7.13669 10.351 7.49109C10.7328 7.84549 10.9227 8.29128 10.9227 8.82643C10.9227 9.36159 10.7318 9.78706 10.351 10.1415C9.96917 10.4959 9.48478 10.6736 8.89581 10.6736C8.30684 10.6736 7.80215 10.4959 7.42033 10.1415ZM10.6018 12.1744V23.0399H7.1685V12.1744H10.6018Z" fill="#007EBB"/>
<path d="M22.0309 13.2477C22.7793 14.0601 23.153 15.1751 23.153 16.5947V22.848H19.8923V17.0354C19.8923 16.3195 19.7065 15.763 19.3358 15.367C18.9652 14.971 18.4656 14.772 17.84 14.772C17.2145 14.772 16.7149 14.97 16.3442 15.367C15.9736 15.763 15.7878 16.3195 15.7878 17.0354V22.848H12.5078V12.1439H15.7878V13.5635C16.1198 13.0903 16.5677 12.7166 17.1302 12.4414C17.6928 12.1663 18.3254 12.0292 19.0291 12.0292C20.2822 12.0292 21.2835 12.4354 22.0309 13.2477Z" fill="#007EBB"/>
</svg>
