<svg width="62" height="63" viewBox="0 0 62 63" fill="none" xmlns="http://www.w3.org/2000/svg">
<mask id="path-1-outside-1_10_66" maskUnits="userSpaceOnUse" x="0" y="12" width="61" height="48" fill="black">
<rect fill="white" y="12" width="61" height="48"/>
<path d="M16.092 36.92C16.764 36.92 17.1 37.424 17.1 38.432C17.1 40.328 15.612 41.276 12.636 41.276C12.06 41.276 11.232 41.168 10.152 40.952C10.464 42.44 10.716 44.096 10.908 45.92C11.124 47.72 11.232 49.208 11.232 50.384C11.232 52.976 10.812 54.956 9.972 56.324C9.132 57.692 8.028 58.376 6.66 58.376C4.932 58.376 3.696 57.152 2.952 54.704C2.232 52.256 1.872 48.56 1.872 43.616C1.872 39.008 2.364 34.34 3.348 29.612C4.356 24.86 5.724 20.936 7.452 17.84C9.204 14.72 11.124 13.16 13.212 13.16C14.34 13.16 15.216 13.664 15.84 14.672C16.488 15.68 16.812 17.036 16.812 18.74C16.812 24.38 13.44 30.524 6.696 37.172C6.456 39.524 6.336 41.588 6.336 43.364C6.336 45.836 6.42 48.368 6.588 50.96C6.756 53.576 7.032 54.884 7.416 54.884C8.136 54.884 8.496 53.636 8.496 51.14C8.496 49.268 8.364 47.456 8.1 45.704C7.86 43.952 7.524 42.104 7.092 40.16C7.068 39.848 7.164 39.452 7.38 38.972C7.62 38.492 7.908 38.072 8.244 37.712C8.58 37.352 8.88 37.172 9.144 37.172C9.624 37.172 10.2 37.196 10.872 37.244C11.088 37.268 11.34 37.28 11.628 37.28C12.588 37.28 13.656 37.196 14.832 37.028C15.024 37.004 15.228 36.98 15.444 36.956C15.66 36.932 15.876 36.92 16.092 36.92ZM12.456 16.724C12.024 16.724 11.484 17.456 10.836 18.92C10.212 20.384 9.588 22.328 8.964 24.752C8.34 27.152 7.8 29.696 7.344 32.384C9.264 30.2 10.74 27.932 11.772 25.58C12.804 23.204 13.332 20.984 13.356 18.92C13.356 17.456 13.056 16.724 12.456 16.724ZM18.988 47.18C17.5 47.18 16.312 46.64 15.424 45.56C14.536 44.48 14.092 43.064 14.092 41.312C14.092 39.392 14.536 37.58 15.424 35.876C16.312 34.148 17.488 32.768 18.952 31.736C20.44 30.68 22.012 30.152 23.668 30.152C24.196 30.152 24.544 30.26 24.712 30.476C24.904 30.668 25.06 31.028 25.18 31.556C25.684 31.46 26.212 31.412 26.764 31.412C27.94 31.412 28.528 31.832 28.528 32.672C28.528 33.176 28.348 34.376 27.988 36.272C27.436 39.032 27.16 40.952 27.16 42.032C27.16 42.392 27.244 42.68 27.412 42.896C27.604 43.112 27.844 43.22 28.132 43.22C28.588 43.22 29.14 42.932 29.788 42.356C30.436 41.756 31.312 40.796 32.416 39.476C32.704 39.14 33.028 38.972 33.388 38.972C33.7 38.972 33.94 39.116 34.108 39.404C34.3 39.692 34.396 40.088 34.396 40.592C34.396 41.552 34.168 42.296 33.712 42.824C32.728 44.048 31.684 45.08 30.58 45.92C29.476 46.76 28.408 47.18 27.376 47.18C26.584 47.18 25.852 46.916 25.18 46.388C24.532 45.836 24.04 45.092 23.704 44.156C22.456 46.172 20.884 47.18 18.988 47.18ZM20.284 43.544C20.812 43.544 21.316 43.232 21.796 42.608C22.276 41.984 22.624 41.156 22.84 40.124L24.172 33.5C23.164 33.524 22.228 33.908 21.364 34.652C20.524 35.372 19.852 36.332 19.348 37.532C18.844 38.732 18.592 40.004 18.592 41.348C18.592 42.092 18.736 42.644 19.024 43.004C19.336 43.364 19.756 43.544 20.284 43.544ZM53.3858 30.188C54.7058 30.188 55.3658 30.608 55.3658 31.448C55.3658 31.736 55.2698 32.132 55.0778 32.636C53.1338 37.172 51.2978 40.832 49.5698 43.616C48.7057 44.984 47.9258 45.92 47.2298 46.424C46.5338 46.928 45.7418 47.18 44.8538 47.18C43.8938 47.18 43.1738 46.808 42.6938 46.064C42.2378 45.32 41.9498 44.096 41.8298 42.392C41.7818 41.768 41.7338 40.832 41.6858 39.584C40.9418 41.648 40.2578 43.232 39.6338 44.336C39.0338 45.416 38.4338 46.16 37.8338 46.568C37.2578 46.976 36.5618 47.18 35.7458 47.18C34.7618 47.18 33.9818 46.796 33.4058 46.028C32.8538 45.26 32.5058 44.048 32.3618 42.392C32.0738 39.032 31.9298 36.092 31.9298 33.572V32.312C31.9538 31.496 32.1578 30.944 32.5418 30.656C32.9258 30.344 33.5498 30.188 34.4138 30.188C35.0378 30.188 35.4938 30.332 35.7818 30.62C36.0938 30.884 36.2498 31.34 36.2498 31.988C36.2498 34.748 36.4178 38.336 36.7538 42.752C37.5458 41.072 38.2778 39.464 38.9498 37.928C39.6218 36.392 40.4018 34.424 41.2898 32.024C41.5538 31.304 41.8658 30.824 42.2258 30.584C42.6098 30.32 43.0538 30.188 43.5578 30.188C44.2298 30.188 44.7338 30.332 45.0698 30.62C45.4058 30.884 45.5738 31.34 45.5738 31.988V37.568C45.5738 39.968 45.5858 41.696 45.6098 42.752C46.7138 40.832 47.6138 39.164 48.3098 37.748C49.0298 36.332 49.8338 34.424 50.7218 32.024C50.9858 31.304 51.3338 30.824 51.7658 30.584C52.1978 30.32 52.7378 30.188 53.3858 30.188ZM56.4893 47.18C55.4333 47.18 54.6293 46.892 54.0773 46.316C53.5493 45.74 53.2853 44.984 53.2853 44.048C53.2853 42.968 53.5853 42.104 54.1853 41.456C54.8093 40.808 55.6733 40.484 56.7773 40.484C57.8333 40.484 58.6253 40.748 59.1533 41.276C59.7053 41.78 59.9813 42.536 59.9813 43.544C59.9813 44.648 59.6693 45.536 59.0453 46.208C58.4213 46.856 57.5693 47.18 56.4893 47.18Z"/>
</mask>
<path d="M16.092 36.92C16.764 36.92 17.1 37.424 17.1 38.432C17.1 40.328 15.612 41.276 12.636 41.276C12.06 41.276 11.232 41.168 10.152 40.952C10.464 42.44 10.716 44.096 10.908 45.92C11.124 47.72 11.232 49.208 11.232 50.384C11.232 52.976 10.812 54.956 9.972 56.324C9.132 57.692 8.028 58.376 6.66 58.376C4.932 58.376 3.696 57.152 2.952 54.704C2.232 52.256 1.872 48.56 1.872 43.616C1.872 39.008 2.364 34.34 3.348 29.612C4.356 24.86 5.724 20.936 7.452 17.84C9.204 14.72 11.124 13.16 13.212 13.16C14.34 13.16 15.216 13.664 15.84 14.672C16.488 15.68 16.812 17.036 16.812 18.74C16.812 24.38 13.44 30.524 6.696 37.172C6.456 39.524 6.336 41.588 6.336 43.364C6.336 45.836 6.42 48.368 6.588 50.96C6.756 53.576 7.032 54.884 7.416 54.884C8.136 54.884 8.496 53.636 8.496 51.14C8.496 49.268 8.364 47.456 8.1 45.704C7.86 43.952 7.524 42.104 7.092 40.16C7.068 39.848 7.164 39.452 7.38 38.972C7.62 38.492 7.908 38.072 8.244 37.712C8.58 37.352 8.88 37.172 9.144 37.172C9.624 37.172 10.2 37.196 10.872 37.244C11.088 37.268 11.34 37.28 11.628 37.28C12.588 37.28 13.656 37.196 14.832 37.028C15.024 37.004 15.228 36.98 15.444 36.956C15.66 36.932 15.876 36.92 16.092 36.92ZM12.456 16.724C12.024 16.724 11.484 17.456 10.836 18.92C10.212 20.384 9.588 22.328 8.964 24.752C8.34 27.152 7.8 29.696 7.344 32.384C9.264 30.2 10.74 27.932 11.772 25.58C12.804 23.204 13.332 20.984 13.356 18.92C13.356 17.456 13.056 16.724 12.456 16.724ZM18.988 47.18C17.5 47.18 16.312 46.64 15.424 45.56C14.536 44.48 14.092 43.064 14.092 41.312C14.092 39.392 14.536 37.58 15.424 35.876C16.312 34.148 17.488 32.768 18.952 31.736C20.44 30.68 22.012 30.152 23.668 30.152C24.196 30.152 24.544 30.26 24.712 30.476C24.904 30.668 25.06 31.028 25.18 31.556C25.684 31.46 26.212 31.412 26.764 31.412C27.94 31.412 28.528 31.832 28.528 32.672C28.528 33.176 28.348 34.376 27.988 36.272C27.436 39.032 27.16 40.952 27.16 42.032C27.16 42.392 27.244 42.68 27.412 42.896C27.604 43.112 27.844 43.22 28.132 43.22C28.588 43.22 29.14 42.932 29.788 42.356C30.436 41.756 31.312 40.796 32.416 39.476C32.704 39.14 33.028 38.972 33.388 38.972C33.7 38.972 33.94 39.116 34.108 39.404C34.3 39.692 34.396 40.088 34.396 40.592C34.396 41.552 34.168 42.296 33.712 42.824C32.728 44.048 31.684 45.08 30.58 45.92C29.476 46.76 28.408 47.18 27.376 47.18C26.584 47.18 25.852 46.916 25.18 46.388C24.532 45.836 24.04 45.092 23.704 44.156C22.456 46.172 20.884 47.18 18.988 47.18ZM20.284 43.544C20.812 43.544 21.316 43.232 21.796 42.608C22.276 41.984 22.624 41.156 22.84 40.124L24.172 33.5C23.164 33.524 22.228 33.908 21.364 34.652C20.524 35.372 19.852 36.332 19.348 37.532C18.844 38.732 18.592 40.004 18.592 41.348C18.592 42.092 18.736 42.644 19.024 43.004C19.336 43.364 19.756 43.544 20.284 43.544ZM53.3858 30.188C54.7058 30.188 55.3658 30.608 55.3658 31.448C55.3658 31.736 55.2698 32.132 55.0778 32.636C53.1338 37.172 51.2978 40.832 49.5698 43.616C48.7057 44.984 47.9258 45.92 47.2298 46.424C46.5338 46.928 45.7418 47.18 44.8538 47.18C43.8938 47.18 43.1738 46.808 42.6938 46.064C42.2378 45.32 41.9498 44.096 41.8298 42.392C41.7818 41.768 41.7338 40.832 41.6858 39.584C40.9418 41.648 40.2578 43.232 39.6338 44.336C39.0338 45.416 38.4338 46.16 37.8338 46.568C37.2578 46.976 36.5618 47.18 35.7458 47.18C34.7618 47.18 33.9818 46.796 33.4058 46.028C32.8538 45.26 32.5058 44.048 32.3618 42.392C32.0738 39.032 31.9298 36.092 31.9298 33.572V32.312C31.9538 31.496 32.1578 30.944 32.5418 30.656C32.9258 30.344 33.5498 30.188 34.4138 30.188C35.0378 30.188 35.4938 30.332 35.7818 30.62C36.0938 30.884 36.2498 31.34 36.2498 31.988C36.2498 34.748 36.4178 38.336 36.7538 42.752C37.5458 41.072 38.2778 39.464 38.9498 37.928C39.6218 36.392 40.4018 34.424 41.2898 32.024C41.5538 31.304 41.8658 30.824 42.2258 30.584C42.6098 30.32 43.0538 30.188 43.5578 30.188C44.2298 30.188 44.7338 30.332 45.0698 30.62C45.4058 30.884 45.5738 31.34 45.5738 31.988V37.568C45.5738 39.968 45.5858 41.696 45.6098 42.752C46.7138 40.832 47.6138 39.164 48.3098 37.748C49.0298 36.332 49.8338 34.424 50.7218 32.024C50.9858 31.304 51.3338 30.824 51.7658 30.584C52.1978 30.32 52.7378 30.188 53.3858 30.188ZM56.4893 47.18C55.4333 47.18 54.6293 46.892 54.0773 46.316C53.5493 45.74 53.2853 44.984 53.2853 44.048C53.2853 42.968 53.5853 42.104 54.1853 41.456C54.8093 40.808 55.6733 40.484 56.7773 40.484C57.8333 40.484 58.6253 40.748 59.1533 41.276C59.7053 41.78 59.9813 42.536 59.9813 43.544C59.9813 44.648 59.6693 45.536 59.0453 46.208C58.4213 46.856 57.5693 47.18 56.4893 47.18Z" fill="#4A7B9D"/>
<path d="M10.152 40.952L10.3481 39.9714L8.86234 39.6743L9.17328 41.1572L10.152 40.952ZM10.908 45.92L9.9135 46.0247L9.91426 46.0319L9.91512 46.0391L10.908 45.92ZM9.972 56.324L9.11983 55.8007L9.972 56.324ZM2.952 54.704L1.9926 54.9862L1.99521 54.9948L2.952 54.704ZM3.348 29.612L2.36976 29.4045L2.36898 29.4082L3.348 29.612ZM7.452 17.84L6.58006 17.3504L6.5788 17.3526L7.452 17.84ZM15.84 14.672L14.9897 15.1984L14.9942 15.2056L14.9988 15.2128L15.84 14.672ZM6.696 37.172L5.99398 36.4598L5.7377 36.7125L5.70117 37.0705L6.696 37.172ZM6.588 50.96L7.58595 50.8959L7.58591 50.8953L6.588 50.96ZM8.1 45.704L7.10916 45.8397L7.11116 45.853L8.1 45.704ZM7.092 40.16L6.09495 40.2367L6.1004 40.3076L6.11581 40.3769L7.092 40.16ZM7.38 38.972L6.48557 38.5248L6.47645 38.543L6.46808 38.5616L7.38 38.972ZM8.244 37.712L8.97506 38.3943L8.244 37.712ZM10.872 37.244L10.9824 36.2501L10.9629 36.2479L10.9432 36.2465L10.872 37.244ZM14.832 37.028L14.708 36.0357L14.6993 36.0368L14.6906 36.0381L14.832 37.028ZM10.836 18.92L9.92148 18.5152L9.91608 18.5279L10.836 18.92ZM8.964 24.752L9.93183 25.0036L9.93243 25.0013L8.964 24.752ZM7.344 32.384L6.35809 32.2167L5.76882 35.6903L8.09504 33.0443L7.344 32.384ZM11.772 25.58L12.6877 25.9818L12.6892 25.9784L11.772 25.58ZM13.356 18.92L14.356 18.9316V18.92H13.356ZM16.092 37.92C16.1344 37.92 16.1229 37.9275 16.0858 37.9089C16.0445 37.8883 16.021 37.8603 16.016 37.8527C16.0153 37.8518 16.0385 37.8869 16.0608 37.9874C16.0831 38.0876 16.1 38.2324 16.1 38.432H18.1C18.1 37.8485 18.0085 37.2359 17.6801 36.7433C17.3039 36.1791 16.7193 35.92 16.092 35.92V37.92ZM16.1 38.432C16.1 39.0688 15.8776 39.4471 15.4467 39.7216C14.9392 40.045 14.05 40.276 12.636 40.276V42.276C14.198 42.276 15.5408 42.033 16.5213 41.4084C17.5784 40.7349 18.1 39.6912 18.1 38.432H16.1ZM12.636 40.276C12.1609 40.276 11.4106 40.1839 10.3481 39.9714L9.95588 41.9326C11.0534 42.1521 11.9591 42.276 12.636 42.276V40.276ZM9.17328 41.1572C9.47707 42.6061 9.72435 44.2278 9.9135 46.0247L11.9025 45.8153C11.7076 43.9642 11.4509 42.2739 11.1307 40.7468L9.17328 41.1572ZM9.91512 46.0391C10.1286 47.8183 10.232 49.263 10.232 50.384H12.232C12.232 49.153 12.1194 47.6217 11.9009 45.8009L9.91512 46.0391ZM10.232 50.384C10.232 52.8939 9.82077 54.6592 9.11983 55.8007L10.8242 56.8473C11.8032 55.2528 12.232 53.0581 12.232 50.384H10.232ZM9.11983 55.8007C8.42464 56.9329 7.61496 57.376 6.66 57.376V59.376C8.44104 59.376 9.83936 58.4511 10.8242 56.8473L9.11983 55.8007ZM6.66 57.376C6.06149 57.376 5.5728 57.1754 5.14065 56.7475C4.68309 56.2943 4.25361 55.5478 3.90879 54.4132L1.99521 54.9948C2.39439 56.3082 2.95491 57.3977 3.73335 58.1685C4.5372 58.9646 5.53051 59.376 6.66 59.376V57.376ZM3.91137 54.4218C3.23298 52.1153 2.872 48.5362 2.872 43.616H0.872C0.872 48.5838 1.23102 52.3967 1.99263 54.9862L3.91137 54.4218ZM2.872 43.616C2.872 39.0797 3.3563 34.4799 4.32702 29.8158L2.36898 29.4082C1.3717 34.2001 0.872 38.9363 0.872 43.616H2.872ZM4.32623 29.8195C5.32056 25.132 6.66033 21.3103 8.3252 18.3274L6.5788 17.3526C4.78767 20.5617 3.39144 24.588 2.36977 29.4045L4.32623 29.8195ZM8.32393 18.3296C10.0291 15.2931 11.6899 14.16 13.212 14.16V12.16C10.5581 12.16 8.37894 14.1469 6.58007 17.3504L8.32393 18.3296ZM13.212 14.16C13.9728 14.16 14.5368 14.4666 14.9897 15.1984L16.6903 14.1456C15.8952 12.8614 14.7072 12.16 13.212 12.16V14.16ZM14.9988 15.2128C15.5081 16.0049 15.812 17.1505 15.812 18.74H17.812C17.812 16.9214 17.4679 15.3551 16.6812 14.1312L14.9988 15.2128ZM15.812 18.74C15.812 23.9791 12.6696 29.8792 5.99398 36.4598L7.39802 37.8842C14.2104 31.1688 17.812 24.7809 17.812 18.74H15.812ZM5.70117 37.0705C5.45877 39.4459 5.336 41.5451 5.336 43.364H7.336C7.336 41.6309 7.45323 39.6021 7.69083 37.2735L5.70117 37.0705ZM5.336 43.364C5.336 45.8586 5.42077 48.4122 5.59009 51.0247L7.58591 50.8953C7.41923 48.3238 7.336 45.8134 7.336 43.364H5.336ZM5.59006 51.0241C5.6748 52.3437 5.78924 53.3829 5.94255 54.1095C6.01731 54.4638 6.11428 54.8094 6.25547 55.0892C6.35434 55.2852 6.69282 55.884 7.416 55.884V53.884C7.94718 53.884 8.10716 54.3193 8.04103 54.1883C8.01722 54.1411 7.96269 53.9962 7.89946 53.6965C7.77676 53.1151 7.6692 52.1923 7.58594 50.8959L5.59006 51.0241ZM7.416 55.884C7.93032 55.884 8.35058 55.6442 8.64467 55.3044C8.91322 54.994 9.07729 54.6049 9.18682 54.2252C9.40682 53.4625 9.496 52.4123 9.496 51.14H7.496C7.496 52.3637 7.40518 53.1855 7.26518 53.6708C7.23199 53.7859 7.19983 53.8681 7.17287 53.9242C7.14558 53.981 7.12923 53.9992 7.13233 53.9956C7.15642 53.9678 7.26168 53.884 7.416 53.884V55.884ZM9.496 51.14C9.496 49.2209 9.36067 47.359 9.08884 45.555L7.11116 45.853C7.36733 47.553 7.496 49.3151 7.496 51.14H9.496ZM9.09075 45.5683C8.84658 43.7859 8.50543 41.9106 8.06819 39.9431L6.11581 40.3769C6.54257 42.2974 6.87342 44.1181 7.10925 45.8397L9.09075 45.5683ZM8.08906 40.0833C8.08386 40.0158 8.10342 39.8013 8.29192 39.3824L6.46808 38.5616C6.22459 39.1027 6.05214 39.6802 6.09495 40.2367L8.08906 40.0833ZM8.27443 39.4192C8.47535 39.0174 8.7101 38.6782 8.97506 38.3943L7.51295 37.0297C7.1059 37.4658 6.76465 37.9666 6.48557 38.5248L8.27443 39.4192ZM8.97506 38.3943C9.10311 38.2571 9.19065 38.1914 9.2355 38.1645C9.27922 38.1383 9.24306 38.172 9.144 38.172V36.172C8.4421 36.172 7.8896 36.6261 7.51295 37.0297L8.97506 38.3943ZM9.144 38.172C9.59291 38.172 10.1438 38.1945 10.8008 38.2415L10.9432 36.2465C10.2562 36.1975 9.65509 36.172 9.144 36.172V38.172ZM10.7616 38.2379C11.0238 38.267 11.3142 38.28 11.628 38.28V36.28C11.3658 36.28 11.1522 36.269 10.9824 36.2501L10.7616 38.2379ZM11.628 38.28C12.6449 38.28 13.7611 38.1911 14.9734 38.0179L14.6906 36.0381C13.5509 36.2009 12.5311 36.28 11.628 36.28V38.28ZM14.956 38.0203C15.143 37.9969 15.3424 37.9734 15.5544 37.9499L15.3336 35.9621C15.1136 35.9866 14.905 36.0111 14.708 36.0357L14.956 38.0203ZM15.5544 37.9499C15.734 37.9299 15.9131 37.92 16.092 37.92V35.92C15.8389 35.92 15.586 35.9341 15.3336 35.9621L15.5544 37.9499ZM12.456 15.724C12.0581 15.724 11.7361 15.8923 11.5102 16.0624C11.2833 16.2333 11.0893 16.453 10.9223 16.6793C10.5882 17.1323 10.2565 17.7587 9.92157 18.5153L11.7504 19.3247C12.0635 18.6173 12.3258 18.1457 12.5317 17.8666C12.6347 17.727 12.6972 17.6722 12.7133 17.6601C12.7304 17.6472 12.6379 17.724 12.456 17.724V15.724ZM9.91608 18.5279C9.26449 20.0566 8.62589 22.0542 7.99557 24.5027L9.93243 25.0013C10.5501 22.6018 11.1595 20.7114 11.7559 19.3121L9.91608 18.5279ZM7.99618 24.5004C7.36426 26.9308 6.81843 29.5031 6.35809 32.2167L8.32991 32.5513C8.78157 29.8889 9.31574 27.3732 9.93182 25.0036L7.99618 24.5004ZM8.09504 33.0443C10.0741 30.7931 11.6094 28.4394 12.6877 25.9818L10.8563 25.1782C9.87061 27.4246 8.45394 29.6069 6.59296 31.7237L8.09504 33.0443ZM12.6892 25.9784C13.7612 23.5103 14.33 21.158 14.3559 18.9316L12.3561 18.9084C12.334 20.81 11.8468 22.8977 10.8548 25.1816L12.6892 25.9784ZM14.356 18.92C14.356 18.1496 14.2814 17.4429 14.0563 16.8938C13.9399 16.6098 13.7616 16.3139 13.4807 16.0855C13.1834 15.8436 12.8273 15.724 12.456 15.724V17.724C12.3847 17.724 12.2911 17.6959 12.2188 17.637C12.1629 17.5916 12.1721 17.5702 12.2057 17.6522C12.2806 17.8351 12.356 18.2264 12.356 18.92H14.356ZM15.424 45.56L16.1965 44.9249L15.424 45.56ZM15.424 35.876L16.3109 36.3381L16.3135 36.3331L15.424 35.876ZM18.952 31.736L19.5282 32.5533L19.5308 32.5515L18.952 31.736ZM24.712 30.476L23.9227 31.0899L23.9609 31.1391L24.0049 31.1831L24.712 30.476ZM25.18 31.556L24.2049 31.7776L24.4188 32.719L25.3671 32.5383L25.18 31.556ZM27.988 36.272L28.9687 36.4681L28.9705 36.4585L27.988 36.272ZM27.412 42.896L26.6227 43.5099L26.6428 43.5358L26.6646 43.5604L27.412 42.896ZM29.788 42.356L30.4524 43.1034L30.46 43.0967L30.4674 43.0898L29.788 42.356ZM32.416 39.476L31.6567 38.8252L31.649 38.8344L32.416 39.476ZM34.108 39.404L33.2443 39.9079L33.2594 39.9338L33.276 39.9587L34.108 39.404ZM33.712 42.824L32.9552 42.1704L32.9437 42.1837L32.9327 42.1974L33.712 42.824ZM30.58 45.92L31.1856 46.7158L30.58 45.92ZM25.18 46.388L24.5316 47.1492L24.5466 47.1621L24.5622 47.1743L25.18 46.388ZM23.704 44.156L24.6452 43.8181L23.9449 41.8671L22.8538 43.6296L23.704 44.156ZM21.796 42.608L21.0034 41.9983V41.9983L21.796 42.608ZM22.84 40.124L23.8189 40.3289L23.8204 40.3211L22.84 40.124ZM24.172 33.5L25.1524 33.6971L25.3991 32.4705L24.1482 32.5003L24.172 33.5ZM21.364 34.652L22.0148 35.4113L22.0166 35.4098L21.364 34.652ZM19.348 37.532L20.27 37.9192L19.348 37.532ZM19.024 43.004L18.2432 43.6287L18.2555 43.6441L18.2683 43.6589L19.024 43.004ZM18.988 46.18C17.7771 46.18 16.881 45.7574 16.1965 44.9249L14.6516 46.1951C15.7431 47.5226 17.223 48.18 18.988 48.18V46.18ZM16.1965 44.9249C15.4897 44.0654 15.092 42.8925 15.092 41.312H13.092C13.092 43.2355 13.5823 44.8946 14.6516 46.1951L16.1965 44.9249ZM15.092 41.312C15.092 39.553 15.4971 37.8996 16.3108 36.3381L14.5372 35.4139C13.5749 37.2604 13.092 39.231 13.092 41.312H15.092ZM16.3135 36.3331C17.134 34.7363 18.2071 33.4846 19.5282 32.5533L18.3759 30.9187C16.7689 32.0514 15.49 33.5597 14.5346 35.4189L16.3135 36.3331ZM19.5308 32.5515C20.8677 31.6027 22.2405 31.152 23.668 31.152V29.152C21.7836 29.152 20.0124 29.7573 18.3733 30.9205L19.5308 32.5515ZM23.668 31.152C23.8724 31.152 23.9831 31.1739 24.0286 31.1881C24.0711 31.2012 23.9998 31.1891 23.9227 31.0899L25.5014 29.8621C25.0262 29.2511 24.2411 29.152 23.668 29.152V31.152ZM24.0049 31.1831C23.9817 31.1599 24.0071 31.176 24.0555 31.2876C24.1016 31.3941 24.1539 31.553 24.2049 31.7776L26.1552 31.3344C26.0276 30.773 25.8226 30.1723 25.4191 29.7689L24.0049 31.1831ZM25.3671 32.5383C25.805 32.4549 26.2701 32.412 26.764 32.412V30.412C26.154 30.412 25.5631 30.4651 24.9929 30.5737L25.3671 32.5383ZM26.764 32.412C27.2632 32.412 27.458 32.5066 27.5058 32.5407C27.5146 32.547 27.516 32.5495 27.5143 32.5474C27.5123 32.5451 27.5113 32.543 27.5116 32.5436C27.5118 32.5441 27.528 32.5782 27.528 32.672H29.528C29.528 31.9892 29.2704 31.3434 28.6683 30.9133C28.1281 30.5274 27.4409 30.412 26.764 30.412V32.412ZM27.528 32.672C27.528 33.0613 27.3717 34.1573 27.0056 36.0855L28.9705 36.4585C29.3244 34.5947 29.528 33.2907 29.528 32.672H27.528ZM27.0075 36.0759C26.4567 38.8297 26.16 40.8403 26.16 42.032H28.16C28.16 41.0637 28.4154 39.2343 28.9686 36.4681L27.0075 36.0759ZM26.16 42.032C26.16 42.544 26.2805 43.07 26.6227 43.5099L28.2014 42.2821C28.201 42.2816 28.1991 42.2791 28.1962 42.2733C28.1932 42.2673 28.1883 42.2561 28.183 42.238C28.1722 42.201 28.16 42.1355 28.16 42.032H26.16ZM26.6646 43.5604C27.0456 43.989 27.5573 44.22 28.132 44.22V42.22C28.1228 42.22 28.1211 42.2192 28.1254 42.22C28.13 42.221 28.1375 42.2231 28.1464 42.2271C28.1553 42.2311 28.1617 42.2352 28.165 42.2378C28.1682 42.2401 28.1661 42.2391 28.1594 42.2316L26.6646 43.5604ZM28.132 44.22C28.9744 44.22 29.7658 43.7138 30.4524 43.1034L29.1237 41.6086C28.5143 42.1502 28.2017 42.22 28.132 42.22V44.22ZM30.4674 43.0898C31.1635 42.4453 32.0723 41.4457 33.1831 40.1176L31.649 38.8344C30.5518 40.1463 29.7086 41.0667 29.1086 41.6222L30.4674 43.0898ZM33.1753 40.1268C33.2531 40.0361 33.3087 39.9996 33.3354 39.9858C33.3572 39.9744 33.3705 39.972 33.388 39.972V37.972C32.6703 37.972 32.0873 38.3229 31.6568 38.8252L33.1753 40.1268ZM33.388 39.972C33.3888 39.972 33.3768 39.972 33.3561 39.9666C33.3347 39.961 33.3108 39.9514 33.2875 39.9375C33.2379 39.9077 33.2289 39.8815 33.2443 39.9079L34.9718 38.9001C34.6396 38.3306 34.0845 37.972 33.388 37.972V39.972ZM33.276 39.9587C33.3191 40.0234 33.396 40.2 33.396 40.592H35.396C35.396 39.976 35.2809 39.3606 34.9401 38.8493L33.276 39.9587ZM33.396 40.592C33.396 41.4022 33.204 41.8823 32.9552 42.1704L34.4689 43.4776C35.1321 42.7097 35.396 41.7018 35.396 40.592H33.396ZM32.9327 42.1974C31.993 43.3663 31.0061 44.3393 29.9745 45.1242L31.1856 46.7158C32.362 45.8207 33.4631 44.7297 34.4914 43.4506L32.9327 42.1974ZM29.9745 45.1242C28.9852 45.8769 28.1248 46.18 27.376 46.18V48.18C28.6912 48.18 29.9669 47.6431 31.1856 46.7158L29.9745 45.1242ZM27.376 46.18C26.8263 46.18 26.3085 46.0029 25.7979 45.6017L24.5622 47.1743C25.3955 47.8291 26.3418 48.18 27.376 48.18V46.18ZM25.8285 45.6268C25.3342 45.2057 24.9323 44.6178 24.6452 43.8181L22.7628 44.4939C23.1478 45.5662 23.7299 46.4663 24.5316 47.1492L25.8285 45.6268ZM22.8538 43.6296C21.7356 45.436 20.4485 46.18 18.988 46.18V48.18C21.3196 48.18 23.1765 46.908 24.5543 44.6824L22.8538 43.6296ZM20.284 44.544C21.252 44.544 22.0155 43.9628 22.5887 43.2177L21.0034 41.9983C20.6166 42.5012 20.3721 42.544 20.284 42.544V44.544ZM22.5887 43.2177C23.186 42.4412 23.582 41.4605 23.8188 40.3289L21.8612 39.9191C21.6661 40.8515 21.3661 41.5268 21.0034 41.9983L22.5887 43.2177ZM23.8204 40.3211L25.1524 33.6971L23.1917 33.3029L21.8597 39.9269L23.8204 40.3211ZM24.1482 32.5003C22.8788 32.5305 21.7265 33.0202 20.7115 33.8942L22.0166 35.4098C22.7296 34.7958 23.4492 34.5175 24.1958 34.4997L24.1482 32.5003ZM20.7132 33.8927C19.736 34.7304 18.9797 35.8266 18.4261 37.1448L20.27 37.9192C20.7244 36.8374 21.3121 36.0136 22.0148 35.4113L20.7132 33.8927ZM18.4261 37.1448C17.8689 38.4714 17.592 39.8755 17.592 41.348H19.592C19.592 40.1325 19.8192 38.9926 20.27 37.9192L18.4261 37.1448ZM17.592 41.348C17.592 42.1895 17.7493 43.0114 18.2432 43.6287L19.8049 42.3793C19.7227 42.2766 19.592 41.9945 19.592 41.348H17.592ZM18.2683 43.6589C18.7922 44.2634 19.5013 44.544 20.284 44.544V42.544C20.0108 42.544 19.8798 42.4646 19.7797 42.3491L18.2683 43.6589ZM55.0778 32.636L55.9969 33.0299L56.005 33.0111L56.0122 32.992L55.0778 32.636ZM49.5698 43.616L50.4153 44.15L50.4194 44.1434L49.5698 43.616ZM47.2298 46.424L46.6432 45.6141L47.2298 46.424ZM42.6938 46.064L41.8411 46.5866L41.8472 46.5964L41.8535 46.6061L42.6938 46.064ZM41.8298 42.392L42.8273 42.3218L42.8268 42.3153L41.8298 42.392ZM41.6858 39.584L42.685 39.5456L40.745 39.2449L41.6858 39.584ZM39.6338 44.336L38.7632 43.8439L38.7596 43.8504L39.6338 44.336ZM37.8338 46.568L37.2714 45.7411L37.2635 45.7464L37.2557 45.752L37.8338 46.568ZM33.4058 46.028L32.5937 46.6116L32.5997 46.6199L32.6058 46.628L33.4058 46.028ZM32.3618 42.392L31.3654 42.4774L31.3655 42.4786L32.3618 42.392ZM31.9298 32.312L30.9302 32.2826L30.9298 32.2973V32.312H31.9298ZM32.5418 30.656L33.1418 31.456L33.1573 31.4444L33.1723 31.4321L32.5418 30.656ZM35.7817 30.62L35.0746 31.3271L35.1041 31.3565L35.1358 31.3834L35.7817 30.62ZM36.7537 42.752L35.7566 42.8279L36.0439 46.6029L37.6583 43.1784L36.7537 42.752ZM38.9497 37.928L38.0336 37.5272L38.9497 37.928ZM41.2897 32.024L42.2276 32.371L42.2286 32.3683L41.2897 32.024ZM42.2257 30.584L42.7805 31.416L42.7864 31.4121L42.7923 31.408L42.2257 30.584ZM45.0698 30.62L44.419 31.3793L44.4352 31.3931L44.4519 31.4063L45.0698 30.62ZM45.6098 42.752L44.61 42.7747L44.6914 46.3553L46.4767 43.2505L45.6098 42.752ZM48.3098 37.748L47.4183 37.2947L47.4123 37.3069L48.3098 37.748ZM50.7218 32.024L51.6596 32.371L51.6606 32.3683L50.7218 32.024ZM51.7658 30.584L52.2514 31.4582L52.2695 31.4481L52.2872 31.4373L51.7658 30.584ZM53.3857 31.188C53.9719 31.188 54.2402 31.2871 54.3339 31.3467C54.3665 31.3674 54.3627 31.3733 54.3562 31.3608C54.3512 31.3513 54.3657 31.3704 54.3657 31.448H56.3657C56.3657 30.7163 56.0507 30.0686 55.4076 29.6593C54.8413 29.2989 54.1196 29.188 53.3857 29.188V31.188ZM54.3657 31.448C54.3657 31.5501 54.323 31.8082 54.1433 32.28L56.0122 32.992C56.2165 32.4558 56.3657 31.9219 56.3657 31.448H54.3657ZM54.1586 32.2421C52.2256 36.7525 50.412 40.3629 48.7201 43.0886L50.4194 44.1434C52.1835 41.3011 54.0419 37.5915 55.9969 33.0299L54.1586 32.2421ZM48.7243 43.082C47.879 44.4204 47.1813 45.2245 46.6432 45.6141L47.8163 47.2339C48.6702 46.6155 49.5325 45.5476 50.4152 44.15L48.7243 43.082ZM46.6432 45.6141C46.1238 45.9902 45.5386 46.18 44.8538 46.18V48.18C45.9449 48.18 46.9437 47.8658 47.8163 47.2339L46.6432 45.6141ZM44.8538 46.18C44.1993 46.18 43.8121 45.9529 43.534 45.5219L41.8535 46.6061C42.5354 47.6631 43.5882 48.18 44.8538 48.18V46.18ZM43.5464 45.5414C43.2217 45.0118 42.9448 43.991 42.8273 42.3218L40.8322 42.4622C40.9547 44.201 41.2538 45.6282 41.8411 46.5866L43.5464 45.5414ZM42.8268 42.3153C42.7803 41.7111 42.7329 40.7907 42.685 39.5456L40.6865 39.6224C40.7346 40.8733 40.7832 41.8249 40.8327 42.4687L42.8268 42.3153ZM40.745 39.2449C40.0084 41.2882 39.3467 42.8116 38.7632 43.8439L40.5043 44.8281C41.1688 43.6524 41.8751 42.0078 42.6265 39.9231L40.745 39.2449ZM38.7596 43.8504C38.1891 44.8773 37.6815 45.4623 37.2714 45.7411L38.3961 47.3949C39.186 46.8577 39.8784 45.9547 40.5079 44.8216L38.7596 43.8504ZM37.2557 45.752C36.8741 46.0223 36.3881 46.18 35.7458 46.18V48.18C36.7354 48.18 37.6414 47.9297 38.4118 47.384L37.2557 45.752ZM35.7458 46.18C35.0672 46.18 34.5874 45.9369 34.2057 45.428L32.6058 46.628C33.3761 47.6551 34.4563 48.18 35.7458 48.18V46.18ZM34.2178 45.4444C33.8232 44.8954 33.4967 43.9001 33.358 42.3054L31.3655 42.4786C31.5148 44.1959 31.8843 45.6246 32.5937 46.6116L34.2178 45.4444ZM33.3581 42.3066C33.0718 38.9662 32.9297 36.0558 32.9297 33.572H30.9298C30.9298 36.1282 31.0757 39.0978 31.3654 42.4774L33.3581 42.3066ZM32.9297 33.572V32.312H30.9298V33.572H32.9297ZM32.9293 32.3414C32.9505 31.6225 33.1292 31.4654 33.1418 31.456L31.9417 29.856C31.1863 30.4226 30.957 31.3695 30.9302 32.2826L32.9293 32.3414ZM33.1723 31.4321C33.2869 31.339 33.6251 31.188 34.4137 31.188V29.188C33.4744 29.188 32.5646 29.349 31.9112 29.8799L33.1723 31.4321ZM34.4137 31.188C34.9108 31.188 35.0534 31.3059 35.0746 31.3271L36.4889 29.9129C35.9341 29.3581 35.1647 29.188 34.4137 29.188V31.188ZM35.1358 31.3834C35.1362 31.3837 35.1371 31.3845 35.1389 31.3865C35.1406 31.3885 35.1438 31.3924 35.1481 31.399C35.1566 31.4121 35.171 31.4383 35.1866 31.4837C35.219 31.5785 35.2497 31.7387 35.2497 31.988H37.2497C37.2497 31.2167 37.0682 30.3986 36.4277 29.8566L35.1358 31.3834ZM35.2497 31.988C35.2497 34.7837 35.4197 38.3997 35.7566 42.8279L37.7509 42.6761C37.4158 38.2723 37.2497 34.7123 37.2497 31.988H35.2497ZM37.6583 43.1784C38.4539 41.4908 39.1898 39.8743 39.8659 38.3288L38.0336 37.5272C37.3657 39.0537 36.6376 40.6532 35.8492 42.3256L37.6583 43.1784ZM39.8659 38.3288C40.5486 36.7685 41.336 34.7808 42.2276 32.371L40.3519 31.677C39.4675 34.0672 38.6949 36.0155 38.0336 37.5272L39.8659 38.3288ZM42.2286 32.3683C42.4694 31.7116 42.6881 31.4776 42.7805 31.416L41.671 29.7519C41.0434 30.1704 40.6381 30.8964 40.3509 31.6797L42.2286 32.3683ZM42.7923 31.408C42.9959 31.2681 43.2387 31.188 43.5578 31.188V29.188C42.8688 29.188 42.2236 29.3719 41.6592 29.76L42.7923 31.408ZM43.5578 31.188C44.1101 31.188 44.3377 31.3096 44.419 31.3793L45.7205 29.8607C45.1298 29.3544 44.3494 29.188 43.5578 29.188V31.188ZM44.4519 31.4063C44.4552 31.4089 44.4804 31.427 44.5094 31.5057C44.5415 31.5929 44.5737 31.745 44.5737 31.988H46.5737C46.5737 31.1954 46.3687 30.3689 45.6876 29.8337L44.4519 31.4063ZM44.5737 31.988V37.568H46.5737V31.988H44.5737ZM44.5737 37.568C44.5737 39.9685 44.5857 41.7064 44.61 42.7747L46.6095 42.7293C46.5858 41.6856 46.5737 39.9675 46.5737 37.568H44.5737ZM46.4767 43.2505C47.5875 41.3185 48.4987 39.6306 49.2072 38.1891L47.4123 37.3069C46.7288 38.6974 45.84 40.3455 44.7428 42.2535L46.4767 43.2505ZM49.2011 38.2012C49.9459 36.7365 50.7652 34.7883 51.6596 32.371L49.7839 31.677C48.9023 34.0597 48.1136 35.9275 47.4184 37.2948L49.2011 38.2012ZM51.6606 32.3683C51.8855 31.7549 52.1181 31.5322 52.2514 31.4582L51.2801 29.7098C50.5494 30.1158 50.086 30.8531 49.7829 31.6797L51.6606 32.3683ZM52.2872 31.4373C52.5239 31.2926 52.871 31.188 53.3857 31.188V29.188C52.6045 29.188 51.8716 29.3474 51.2443 29.7307L52.2872 31.4373ZM54.0773 46.316L53.3402 46.9917L53.3477 46.9999L53.3554 47.0079L54.0773 46.316ZM54.1853 41.456L53.465 40.7624L53.4582 40.7694L53.4516 40.7766L54.1853 41.456ZM59.1533 41.276L58.4462 41.9831L58.4623 41.9992L58.4791 42.0145L59.1533 41.276ZM59.0453 46.208L59.7657 46.9016L59.772 46.8951L59.7781 46.8885L59.0453 46.208ZM56.4893 46.18C55.6139 46.18 55.1073 45.9455 54.7993 45.6241L53.3554 47.0079C54.1513 47.8385 55.2527 48.18 56.4893 48.18V46.18ZM54.8145 45.6403C54.4879 45.284 54.2853 44.7861 54.2853 44.048H52.2853C52.2853 45.1819 52.6108 46.196 53.3402 46.9917L54.8145 45.6403ZM54.2853 44.048C54.2853 43.1609 54.5266 42.5594 54.9191 42.1354L53.4516 40.7766C52.6441 41.6486 52.2853 42.7751 52.2853 44.048H54.2853ZM54.9057 42.1496C55.2998 41.7403 55.8791 41.484 56.7773 41.484V39.484C55.4676 39.484 54.3189 39.8757 53.465 40.7624L54.9057 42.1496ZM56.7773 41.484C57.6792 41.484 58.1719 41.7088 58.4462 41.9831L59.8605 40.5689C59.0788 39.7872 57.9875 39.484 56.7773 39.484V41.484ZM58.4791 42.0145C58.7585 42.2696 58.9813 42.7147 58.9813 43.544H60.9813C60.9813 42.3573 60.6522 41.2904 59.8276 40.5375L58.4791 42.0145ZM58.9813 43.544C58.9813 44.45 58.731 45.0769 58.3125 45.5275L59.7781 46.8885C60.6076 45.9951 60.9813 44.846 60.9813 43.544H58.9813ZM58.325 45.5144C57.9267 45.928 57.3563 46.18 56.4893 46.18V48.18C57.7824 48.18 58.916 47.784 59.7657 46.9016L58.325 45.5144Z" fill="#4A7B9D" mask="url(#path-1-outside-1_10_66)"/>
<path d="M18 26H27" stroke="#4A7B9D" stroke-width="3" stroke-linecap="round"/>
</svg>
