<svg width="30" height="30" viewBox="0 0 30 30" fill="none" xmlns="http://www.w3.org/2000/svg">
<rect width="30" height="30" rx="15" fill="black"/>
<path d="M16.0797 15.401C16.0797 17.9695 13.9626 20.0551 11.3399 20.0551C8.71721 20.0551 6.6001 17.9695 6.6001 15.401C6.6001 12.8325 8.71721 10.7468 11.3399 10.7468C13.9626 10.7468 16.0797 12.8325 16.0797 15.401ZM21.2724 15.401C21.2724 17.8154 20.2086 19.7777 18.9025 19.7777C17.5965 19.7777 16.5326 17.8154 16.5326 15.401C16.5326 12.9866 17.5965 11.0242 18.9025 11.0242C20.2086 11.0242 21.2724 12.9763 21.2724 15.401ZM23.4001 15.401C23.4001 17.5688 23.0314 19.3256 22.568 19.3256C22.1045 19.3256 21.7359 17.5688 21.7359 15.401C21.7359 13.2331 22.1045 11.4763 22.568 11.4763C23.0314 11.4763 23.4001 13.2331 23.4001 15.401Z" fill="white"/>
</svg>
